{"title":"Top Cat Begins 2015 English Movies HDRip XviD AAC +Sample ☻rDX☻","uid":13828235,"size":738448222,"categoryP":"video","categoryS":"movies","magnet":"?xt=urn:btih:8814db0562365a231d6fc2c0dd96f24956bf0896&amp;dn=Top+Cat+Begins+2015+English+Movies+HDRip+XviD+AAC+%2BSample+%E2%98%BBrDX%E2%98%BB&amp;tr=udp%3A%2F%2Ftracker.leechers-paradise.org%3A6969&amp;tr=udp%3A%2F%2Fzer0day.ch%3A1337&amp;tr=udp%3A%2F%2Fopen.demonii.com%3A1337&amp;tr=udp%3A%2F%2Ftracker.coppersurfer.tk%3A6969&amp;tr=udp%3A%2F%2Fexodus.desync.com%3A6969","seeders":0,"leechers":1,"uploader":"basicssom","files":2,"time":1457722455,"description":"----------------------------------------------------------------\r\nTop Cat Begins 2015 English Movies HDRip XviD AAC with Sample ~ ☻rDX☻\r\n\r\nSCREEN SHOTS &amp; POSTER:\r\n  \nhttp://mobileshosting.com/2016/3/TopCatBegins/index.htm  \nhttp://mobileshosting.com/2016/3/TopCatBegins/1.html  \nhttp://mobileshosting.com/2016/3/TopCatBegins/2.html  \nhttp://mobileshosting.com/2016/3/TopCatBegins/3.html  \nhttp://mobileshosting.com/2016/3/TopCatBegins/4.html  \nhttp://mobileshosting.com/2016/3/TopCatBegins/5.html  \nhttp://mobileshosting.com/2016/3/TopCatBegins/6.html  \nhttp://mobileshosting.com/2016/3/TopCatBegins/7.html  \nhttp://mobileshosting.com/2016/3/TopCatBegins/8.html  \nhttp://mobileshosting.com/2016/3/TopCatBegins/9.html  \nhttp://mobileshosting.com/2016/3/TopCatBegins/10.html\r\n\r\nFormat                                   : Matroska\r\nFormat version                           : Version 4 / Version 2\r\nFile size                                : 696 MiB\r\nDuration                                 : 1h 28mn\r\nOverall bit rate                         : 1 096 Kbps\r\nMovie name                               : Top Cat Begins 2015 English Movies HDRip XviD AAC ☻rDX☻\r\n\r\nVideo\r\nID                                       : 1\r\nFormat                                   : MPEG-4 Visual\r\nFormat profile                           : Advanced   \r\nFormat settings, BVOP                    : Yes\r\nFormat settings, QPel                    : No\r\nFormat settings, GMC                     : No warppoints\r\nFormat settings, Matrix                  : Default (H.263)\r\nCodec ID                                 : V_MS/VFW/FOURCC / XVID\r\nCodec ID/Hint                            : XviD\r\nDuration                                 : 1h 28mn\r\nBit rate                                 : 963 Kbps\r\nWidth                                    : 640 pixels\r\nHeight                                   : 352 pixels\r\nDisplay aspect ratio                     : 16:9\r\nFrame rate mode                          : Constant\r\nFrame rate                               : 23.976 fps\r\nColor space                              : YUV\r\nChroma subsampling                       : 4:2:0\r\nBit depth                                : 8 bits\r\nScan type                                : Progressive\r\nCompression mode                         : Lossy\r\nBits/(Pixel*Frame)                       : 0.178\r\nStream size                              : 611 MiB (88%)\r\nTitle                                    : ☻rDX☻\r\nWriting library                          : XviD 65\r\nDefault                                  : Yes\r\nForced                                   : No\r\n\r\nAudio\r\nID                                       : 2\r\nFormat                                   : MPEG Audio\r\nFormat version                           : Version 1\r\nFormat profile                           : Layer 3\r\nMode                                     : Joint stereo\r\nMode extension                           : MS Stereo\r\nCodec ID                                 : A_MPEG/L3\r\nCodec ID/Hint                            : MP3\r\nDuration                                 : 1h 29mn\r\nBit rate mode                            : Constant\r\nBit rate                                 : 112 Kbps\r\nChannel(s)                               : 2 channels\r\nSampling rate                            : 48.0 KHz\r\nCompression mode                         : Lossy\r\nStream size                              : 71.9 MiB (10%)\r\nTitle                                    : ☻rDX☻\r\nWriting library                          : LAME3.99r\r\nEncoding settings                        : -m j -V 4 -q 3 -lowpass 15.6 -b 112\r\nDefault                                  : Yes\r\nForced                                   : No\r\n\r\nIMDB                                      \nhttp://www.imdb.com/title/tt4057916/","torrent":{"xt":"urn:btih:8814db0562365a231d6fc2c0dd96f24956bf0896","amp;dn":"Top+Cat+Begins+2015+English+Movies+HDRip+XviD+AAC+%2BSample+%E2%98%BBrDX%E2%98%BB","amp;tr":["udp%3A%2F%2Ftracker.leechers-paradise.org%3A6969","udp%3A%2F%2Fzer0day.ch%3A1337","udp%3A%2F%2Fopen.demonii.com%3A1337","udp%3A%2F%2Ftracker.coppersurfer.tk%3A6969","udp%3A%2F%2Fexodus.desync.com%3A6969"],"infoHash":"8814db0562365a231d6fc2c0dd96f24956bf0896","infoHashBuffer":{"type":"Buffer","data":[136,20,219,5,98,54,90,35,29,111,194,192,221,150,242,73,86,191,8,150]},"announce":[],"urlList":[]}}